# xmcd
#
# Track frame offsets: 
#        150
#        12147
#        25207
#        38387
#        50155
#        63350
#        74630
#        87725
#        99045
#        110450
#        119705
#        130775
#        143882
#        156070
#        167830
#        181580
#        193727
#        207025
#        219010
#        230430
#        241767
#        251315
#        265307
#        276647
#        287595
#
# Disc length: 3962 seconds
#
# Revision: 0
# Processed by: cddbd v1.4PL0 Copyright (c) Steve Scherf et al.
# Submitted via: ExactAudioCopy v0.95a2
#
DISCID=620f7819
DTITLE=JIMMY LIGGINS and HIS DROP OF JOY - SATURDAY NIGHT BOOGIE WOOGIE 
DTITLE=MAN
DYEAR=1900
DGENRE=Blues
TTITLE0=Trouble Goodbye
TTITLE1=I Can't Stop It
TTITLE2=That Song Is Gone
TTITLE3=Cadillac Boogie
TTITLE4=Tear Drop Blues
TTITLE5=The Washboard Special
TTITLE6=Nite Life Boogie
TTITLE7=Homecooking Blues
TTITLE8=Careful Love
TTITLE9=Move Out Baby
TTITLE10=Rough Weather Blues
TTITLE11=Don't Put Me Down
TTITLE12=Baby I Can't Forget You
TTITLE13=Answer To Tear Drop Blues
TTITLE14=Misery Blues
TTITLE15=Mississippi Blues
TTITLE16=Saturday Night Boogie Woogie Man
TTITLE17=I Want My Baby For Christmas
TTITLE18=Shuffle Shuck (J. Moore, O. Moore, B. Valentine)
TTITLE19=Low Down Blues
TTITLE20=That's What's Knockin' Me Out
TTITLE21=Goin' Down With The Sun
TTITLE22=Drunk
TTITLE23=Goin' Away
TTITLE24=Come Back Home
EXTD=
EXTT0=
EXTT1=
EXTT2=
EXTT3=
EXTT4=
EXTT5=
EXTT6=
EXTT7=
EXTT8=
EXTT9=
EXTT10=
EXTT11=
EXTT12=
EXTT13=
EXTT14=
EXTT15=
EXTT16=
EXTT17=
EXTT18=
EXTT19=
EXTT20=
EXTT21=
EXTT22=
EXTT23=
EXTT24=
PLAYORDER=
